<svg width="55" height="41" viewBox="0 0 55 41" fill="none" xmlns="http://www.w3.org/2000/svg">
<g clip-path="url(#clip0_25_515)">
<path d="M51.2951 12.9849C53.372 14.5019 53.803 16.7648 54.2198 18.9956C55.0356 23.3857 55.0143 27.8295 54.9288 32.2732C54.886 34.5539 54.9038 36.8347 54.8931 39.1154C54.886 40.5574 54.4443 40.9929 52.9908 40.9964C51.744 40.9964 50.4971 41.0036 49.2538 40.9964C48.0925 40.9893 47.6151 40.4967 47.6044 39.3153C47.5973 38.5479 47.6044 37.7805 47.6009 37.0096C47.5973 35.9888 47.3943 35.7818 46.3897 35.7818C41.7407 35.7782 37.0918 35.7818 32.4428 35.7818C24.5343 35.7818 16.6293 35.7818 8.72077 35.7818C7.55943 35.7818 7.40268 35.9424 7.39912 37.1131C7.39556 37.9055 7.41337 38.6978 7.392 39.4902C7.3635 40.486 6.85407 40.9857 5.8566 40.9929C4.44232 41.0071 3.02805 41.0071 1.61377 40.9929C0.662609 40.9822 0.117561 40.4646 0.131811 39.5188C0.235121 33.8329 -0.306365 28.1364 0.324181 22.4613C0.555737 20.3733 0.997476 18.3031 1.48196 16.2544C1.78833 14.9623 2.42956 13.788 3.79396 13.0028C3.45197 12.8886 3.20261 12.8422 2.98886 12.728C2.17307 12.2889 1.3074 11.9106 0.580674 11.3538C-0.142495 10.797 -0.174556 10.0546 0.331306 9.30147C0.951164 8.37703 1.76696 7.77383 2.94611 7.79168C4.0469 7.80952 5.15124 7.7774 6.25203 7.80238C6.64745 7.81309 6.83626 7.67389 7.00369 7.31697C9.19814 2.63768 12.8781 0.132061 18.0472 0.0713835C24.4167 -0.00357083 30.7934 -0.0249864 37.163 0.0856605C42.1504 0.171323 45.7199 2.65909 47.8894 7.1385C48.1352 7.64891 48.381 7.84878 48.9475 7.8238C49.9984 7.77383 51.0564 7.81666 52.1109 7.80952C53.3613 7.79881 54.17 8.49839 54.7578 9.49778C55.1354 10.1367 55.0641 10.8398 54.4514 11.3181C53.7639 11.8535 52.9587 12.239 52.1928 12.6673C51.9399 12.7993 51.6371 12.8636 51.2951 12.9849ZM46.1545 11.8463C45.8019 10.9255 45.4955 10.0974 45.1749 9.27649C43.8889 5.97493 41.3524 4.24741 37.9468 3.96901C31.1319 3.4122 24.2992 3.46574 17.4772 3.91547C12.9422 4.21529 9.70756 7.21703 8.94877 11.8392C21.3103 11.2253 33.6612 11.2253 46.1545 11.8463ZM27.4662 24.9562V24.9526C29.6927 24.9526 31.9192 24.9741 34.1421 24.9455C35.6134 24.9277 36.3187 24.3494 36.7284 22.9396C36.9244 22.2721 37.1132 21.6047 37.2984 20.9372C37.6475 19.6809 37.2093 18.992 35.9233 18.9563C31.7624 18.8349 27.6015 18.7243 23.4406 18.6815C21.9373 18.6672 20.4304 18.8385 18.9271 18.9599C17.8192 19.0527 17.3703 19.7273 17.6624 20.7909C17.8441 21.4619 18.04 22.1258 18.2324 22.7932C18.6955 24.3958 19.3474 24.9277 21.0004 24.9455C23.1556 24.9741 25.3109 24.9562 27.4662 24.9562ZM27.4947 32.2054C29.5751 32.2054 31.6591 32.2089 33.7396 32.2054C34.6408 32.2018 34.819 32.0198 34.8225 31.0989C34.8261 30.5956 34.8225 30.0924 34.8225 29.5891C34.8225 28.993 34.5233 28.7182 33.9319 28.7182C29.6464 28.7218 25.3643 28.7218 21.0788 28.7182C20.4447 28.7182 20.1632 29.0323 20.1632 29.6462C20.1632 30.1495 20.1561 30.6527 20.1632 31.156C20.1739 31.9876 20.3912 32.2018 21.2426 32.2054C23.3302 32.2089 25.4142 32.2054 27.4947 32.2054ZM40.3443 23.7748C42.4603 23.5535 44.4375 23.4179 46.3932 23.1323C49.6421 22.6576 49.806 19.9414 48.6767 17.6856C48.6055 17.5393 48.292 17.4001 48.1317 17.4358C46.5678 17.7749 45.0075 18.1282 43.4614 18.528C42.5601 18.76 41.7193 19.174 41.3987 20.1341C41.0211 21.2656 40.729 22.4256 40.3443 23.7748ZM14.6664 23.8212C14.3494 22.7004 14.0323 21.7974 13.8506 20.8658C13.5763 19.4703 12.6822 18.7885 11.3926 18.4887C10.1849 18.2068 8.96658 17.9498 7.76249 17.6571C6.33396 17.3073 6.27696 17.3323 5.90291 18.7671C5.86016 18.9277 5.81385 19.0919 5.78535 19.2561C5.45048 21.2085 6.17365 22.6183 8.01185 22.9788C10.1564 23.3964 12.3509 23.5392 14.6664 23.8212Z" fill="white"/>
</g>
<defs>
<clipPath id="clip0_25_515">
<rect width="55" height="41" fill="white"/>
</clipPath>
</defs>
</svg>
