<svg width="72" height="84" viewBox="0 0 72 84" fill="none" xmlns="http://www.w3.org/2000/svg">
<g clip-path="url(#clip0_34_98)">
<path d="M0 12.0238V38.4566V39.1849C0 40.7637 0.0883978 42.3277 0.265193 43.8723C0.8938 53.3544 5.51995 72.8663 31.8625 81.8597H31.8576C31.8576 81.8597 31.9116 81.8792 32 81.9037C32.6532 82.1236 33.3211 82.3387 33.9988 82.5489C34.9024 82.8372 35.7913 83.1109 36.0025 83.1549L37.1222 82.8177C37.1762 82.803 37.2302 82.7835 37.2842 82.7688L38.3303 82.4511C66.2738 73.7509 71.0915 53.5695 71.7348 43.8723C71.9116 42.3277 72 40.7637 72 39.1849V38.4566V12.0238L36.0025 0L0 12.0238Z" fill="#EEEEEE"/>
</g>
<path d="M49.5486 33.4525C47.4356 33.1299 47.0982 33.1971 45.2935 34.2925C44.974 33.3942 44.2678 33.2374 43.4091 33.2408C37.5174 33.2587 31.6257 33.2486 25.7351 33.252C24.6489 33.252 24.0099 34.0864 24.3081 35.0955C24.4807 35.6802 24.9403 36.0375 25.5759 36.0576C25.9716 36.0711 26.3673 36.061 26.763 36.061C30.192 36.061 33.6221 36.061 37.0511 36.061C37.2114 36.061 37.3717 36.061 37.5354 36.061C37.0623 36.2626 36.5713 36.4115 36.1431 36.6658C34.8204 37.4509 34.1164 38.6493 34.0851 40.1759C34.0391 42.4451 34.0346 44.7154 34.0694 46.9845C34.0862 48.0328 34.2386 49.0789 34.3283 50.1194C31.5057 50.1194 28.6126 50.1172 25.7194 50.1206C24.9213 50.1217 24.4449 50.4846 24.2778 51.2003C24.0671 52.1041 24.6634 52.9195 25.5882 52.924C28.3727 52.9385 31.1571 52.9441 33.9416 52.9116C34.3182 52.9072 34.6926 52.6686 35.1242 52.5185C35.9817 54.7395 37.3437 56.7533 39.2033 58.5207C39.0139 58.5352 38.8928 58.552 38.7729 58.552C33.9662 58.5532 29.1585 58.5576 24.3518 58.5509C21.8342 58.5476 20.0036 56.713 20.0025 54.1907C19.9992 44.9214 19.9992 35.6522 20.0025 26.3829C20.0036 23.8337 21.8297 22.0036 24.3754 22.0025C31.3073 21.9992 38.2393 21.9992 45.1713 22.0025C47.7192 22.0036 49.5408 23.8304 49.5464 26.3807C49.552 28.6061 49.5475 30.8327 49.5475 33.0582C49.5486 33.1893 49.5486 33.3181 49.5486 33.4525ZM34.7285 30.4385C37.7909 30.4385 40.8534 30.443 43.9147 30.4351C44.7554 30.4329 45.326 29.8337 45.3136 29.0127C45.3013 28.2041 44.7431 27.6317 43.9181 27.6306C37.8234 27.625 31.7288 27.6272 25.6331 27.6284C25.5602 27.6284 25.4862 27.6284 25.4134 27.6407C24.8574 27.7314 24.4774 28.0361 24.3103 28.5793C23.9998 29.5828 24.641 30.4363 25.7183 30.4374C28.7213 30.4419 31.7255 30.4385 34.7285 30.4385ZM28.9264 41.6846C30.0238 41.6846 31.1224 41.6902 32.2198 41.6835C33.111 41.6779 33.6692 41.1279 33.6681 40.2756C33.6669 39.4255 33.1065 38.8778 32.2131 38.8756C30.0463 38.87 27.8806 38.8711 25.7138 38.8756C24.8249 38.8778 24.2453 39.4277 24.2341 40.261C24.2229 41.11 24.8137 41.6801 25.7205 41.6835C26.7899 41.6891 27.8582 41.6857 28.9264 41.6846ZM28.9264 47.3082C30.0238 47.3082 31.1224 47.3138 32.2198 47.3071C33.111 47.3015 33.6692 46.7515 33.6681 45.8992C33.6658 45.0491 33.1065 44.5014 32.2119 44.4992C30.0451 44.4936 27.8795 44.4947 25.7127 44.4992C24.8237 44.5014 24.2442 45.0514 24.233 45.8858C24.2218 46.7347 24.8125 47.3048 25.7205 47.3082C26.7899 47.3127 27.8582 47.3082 28.9264 47.3082Z" fill="#C80000"/>
<path d="M59.413 40.3013C59.4018 39.4266 58.7976 38.8576 57.9199 38.8756C57.4805 38.8845 57.0422 38.9428 56.6028 38.9416C53.9102 38.9316 51.4878 38.0837 49.2953 36.5459C48.3492 35.8818 47.9568 35.884 46.9996 36.5504C44.4965 38.2887 41.7445 39.1376 38.6787 38.8879C37.4838 38.7916 36.8964 39.3504 36.893 40.5466C36.8863 42.538 36.8852 44.5294 36.8762 46.5208C36.8594 50.7903 38.5397 54.2971 41.7894 57.0042C43.5515 58.4714 45.4739 59.7493 47.337 61.0967C47.8907 61.4966 48.4624 61.4618 49.0509 61.0385C50.6909 59.858 52.3566 58.7099 53.9517 57.4712C57.0119 55.0934 58.9388 52.0167 59.3244 48.1146C59.4601 46.7526 59.3469 45.3661 59.3469 43.9907H59.4164C59.4164 42.7609 59.4264 41.5311 59.413 40.3013ZM51.6784 50.8049C51.6504 51.1666 51.4912 51.469 51.2737 51.7289C50.2626 52.8702 48.644 53.2308 47.3717 52.4367C47.3 52.3796 47.2125 52.3505 47.1554 52.3068C46.967 52.1623 46.8079 52.206 46.6633 52.3505C46.3886 52.6103 46.0994 52.7403 45.7239 52.7403C45.2475 52.7548 44.8574 52.5521 44.5973 52.1332C44.3507 51.7009 44.3362 51.2529 44.5973 50.834C44.7554 50.6033 44.9729 50.4005 45.1892 50.2135C45.7676 49.6792 45.9559 49.3757 46.1286 48.6824C45.8685 48.6242 45.5939 48.5962 45.3775 48.538C45.002 48.4371 44.7845 48.1773 44.7845 47.8592C44.7845 47.5557 45.002 47.2959 45.3921 47.195C45.6084 47.1368 45.8977 47.1077 46.216 47.0506C45.7531 45.2597 45.7093 43.0073 47.8918 42.5593C49.0767 42.2132 50.6673 43.1943 50.8837 44.4364C50.9128 44.5518 50.9128 44.6537 50.8982 44.7691C50.8545 45.0435 50.6819 45.2597 50.4644 45.2888C50.1752 45.3325 49.988 45.2014 49.9006 44.9707C49.4242 43.8014 47.7472 43.527 48.1373 45.2597C48.2539 45.8376 48.3839 46.3718 48.514 46.9643C48.8458 46.9643 49.1495 46.9498 49.4679 46.9643C50.0889 47.0069 50.7391 47.0797 51.1291 47.5411C51.4475 47.8883 51.3466 48.3789 50.9128 48.5816C50.6673 48.7116 50.3635 48.7832 50.0889 48.7978C49.6697 48.8269 48.8032 48.7687 48.3402 48.7687C48.3256 49.2312 48.2965 49.7655 47.9793 50.358C48.0802 50.4297 48.1665 50.4879 48.2685 50.545C48.8312 50.8485 49.6842 50.8485 50.1472 50.4442C50.3052 50.2997 50.4644 50.1553 50.6382 50.069C50.8982 49.9245 51.1874 49.91 51.4475 50.097C51.6638 50.2852 51.7076 50.545 51.6784 50.8049Z" fill="#C80000"/>
<defs>
<clipPath id="clip0_34_98">
<rect width="72" height="83.1549" fill="white"/>
</clipPath>
</defs>
</svg>
