<svg width="72" height="84" viewBox="0 0 72 84" fill="none" xmlns="http://www.w3.org/2000/svg">
<g clip-path="url(#clip0_34_99)">
<path d="M0 12.0238V38.4566V39.1849C0 40.7637 0.0883978 42.3277 0.265193 43.8723C0.8938 53.3544 5.51995 72.8663 31.8625 81.8597H31.8576C31.8576 81.8597 31.9116 81.8792 32 81.9037C32.6532 82.1236 33.3211 82.3387 33.9988 82.5489C34.9024 82.8372 35.7913 83.1109 36.0025 83.1549L37.1222 82.8177C37.1762 82.803 37.2302 82.7835 37.2842 82.7688L38.3303 82.4511C66.2738 73.7509 71.0915 53.5695 71.7348 43.8723C71.9116 42.3277 72 40.7637 72 39.1849V38.4566V12.0238L36.0025 0L0 12.0238Z" fill="#EEEEEE"/>
</g>
<path d="M34.983 56.2389C33.7833 56.2389 32.6018 56.2469 31.4215 56.2263C31.3047 56.224 31.1342 56.0719 31.0838 55.9506C30.7632 55.1774 30.4828 54.387 30.1576 53.6149C30.0935 53.4628 29.9149 53.3003 29.7581 53.2569C28.4209 52.8897 27.1548 52.3624 25.9447 51.6875C25.781 51.596 25.5051 51.5823 25.3299 51.652C24.5789 51.9517 23.8417 52.2892 23.1067 52.63C22.8846 52.733 22.7392 52.733 22.5538 52.5431C21.5887 51.5571 20.611 50.5825 19.6265 49.6171C19.4548 49.4478 19.4353 49.3186 19.5349 49.1047C19.8886 48.3463 20.2344 47.5822 20.5515 46.8078C20.6133 46.6579 20.5973 46.4177 20.5171 46.277C19.8325 45.0725 19.3025 43.8086 18.9316 42.4737C18.8812 42.2941 18.6946 42.0917 18.5206 42.0173C17.7765 41.6993 17.0174 41.4145 16.255 41.1423C15.9963 41.0496 15.9161 40.9146 15.9184 40.6458C15.931 39.3098 15.9333 37.9726 15.9173 36.6366C15.9138 36.3506 15.994 36.2054 16.2699 36.107C17.0323 35.8347 17.7902 35.5465 18.5355 35.2319C18.698 35.1633 18.8755 34.9746 18.9224 34.8076C19.2979 33.4589 19.8291 32.1801 20.5217 30.9642C20.6019 30.8246 20.6087 30.5844 20.5458 30.4323C20.2275 29.6579 19.868 28.9007 19.5418 28.1297C19.4925 28.0142 19.4857 27.8014 19.5566 27.7294C20.6202 26.6416 21.6986 25.5709 22.7839 24.4865C23.6459 24.8686 24.4839 25.2552 25.3368 25.6018C25.512 25.6727 25.7879 25.659 25.9516 25.5663C27.1342 24.9006 28.3694 24.3676 29.6871 24.0358C29.9458 23.9706 30.0958 23.8597 30.1897 23.5966C30.461 22.8348 30.7735 22.0878 31.0529 21.3283C31.1376 21.0973 31.2441 20.9978 31.5097 21C32.8903 21.0149 34.271 21.0149 35.6516 21C35.9012 20.9978 35.995 21.095 36.0729 21.3066C36.358 22.0787 36.6476 22.8508 36.9681 23.608C37.0368 23.7705 37.2246 23.9455 37.3917 23.9935C38.7231 24.3756 40.0042 24.872 41.1914 25.5892C41.4135 25.723 41.5932 25.7207 41.821 25.6144C42.5548 25.2724 43.3013 24.9578 44.0351 24.6158C44.2595 24.5105 44.4026 24.5197 44.5857 24.7073C45.5417 25.683 46.5079 26.6473 47.4833 27.6035C47.6641 27.7808 47.7031 27.9204 47.5932 28.156C47.2429 28.9007 46.9051 29.6533 46.596 30.4151C46.5296 30.5776 46.5434 30.8349 46.6292 30.9871C47.3092 32.1938 47.8553 33.4532 48.1873 34.7996C48.2491 35.0523 48.3842 35.1702 48.6212 35.256C49.3825 35.5316 50.1324 35.8359 50.8925 36.115C51.1089 36.1939 51.2016 36.3003 51.1993 36.5439C51.1879 37.9372 51.189 39.3304 51.1982 40.7236C51.1993 40.9466 51.1238 41.069 50.9143 41.1205C50.8731 41.1308 50.8318 41.1434 50.7941 41.1628C49.8691 41.6364 48.9624 41.7714 47.9091 41.4374C47.0631 41.1686 46.1129 41.2292 45.2085 41.148C45.0849 41.1365 44.9589 41.1468 44.8261 41.1468C46.256 34.5662 41.8542 28.8675 36.4507 27.4937C31.1685 26.1508 25.6608 28.6639 23.2407 33.5779C20.8743 38.3833 22.2973 43.9012 25.6757 46.9302C26.6866 43.3785 28.9407 41.1525 32.6453 40.6584C35.2017 40.3175 37.4272 41.1663 39.2807 42.9759C34.8056 46.4269 33.402 50.8296 34.983 56.2389Z" fill="#C80000"/>
<path d="M55.3263 52.5797C55.0985 58.1354 50.5719 62.338 45.0585 62.1115C39.6458 61.8884 35.4936 57.2832 35.7191 51.7515C35.9332 46.5035 40.604 42.2804 45.9297 42.5183C51.2863 42.7562 55.5427 47.3145 55.3263 52.5797ZM43.8713 53.8334C43.0242 52.9789 42.2995 52.2354 41.5611 51.5068C40.8971 50.8525 39.9629 50.8296 39.3482 51.4335C38.7082 52.0615 38.7208 52.9858 39.3997 53.6721C40.4895 54.7748 41.5851 55.8706 42.6876 56.9595C43.3756 57.6401 44.2628 57.6287 44.9623 56.9435C45.3996 56.5157 45.8267 56.0776 46.256 55.6441C47.8164 54.0679 49.379 52.4928 50.936 50.9131C51.5359 50.3034 51.6217 49.4867 51.1707 48.8633C50.5948 48.0672 49.529 47.9985 48.794 48.7329C47.2451 50.2805 45.7065 51.8396 44.169 53.3987C44.0602 53.5085 43.9904 53.6561 43.8713 53.8334Z" fill="#C80000"/>
<path d="M37.6161 35.6586C37.6264 37.9017 35.7993 39.7364 33.5611 39.7307C31.3413 39.725 29.5177 37.9108 29.5016 35.694C29.4856 33.4715 31.3322 31.623 33.568 31.623C35.7935 31.623 37.6058 33.4292 37.6161 35.6586Z" fill="#C80000"/>
<defs>
<clipPath id="clip0_34_99">
<rect width="72" height="83.1549" fill="white"/>
</clipPath>
</defs>
</svg>
