<svg width="72" height="84" viewBox="0 0 72 84" fill="none" xmlns="http://www.w3.org/2000/svg">
<g clip-path="url(#clip0_58_328)">
<path d="M0 12.0238V38.4566V39.1849C0 40.7637 0.0883978 42.3277 0.265193 43.8723C0.8938 53.3544 5.51995 72.8663 31.8625 81.8597H31.8576C31.8576 81.8597 31.9116 81.8792 32 81.9037C32.6532 82.1236 33.3211 82.3387 33.9988 82.5489C34.9024 82.8372 35.7913 83.1109 36.0025 83.1549L37.1222 82.8177C37.1762 82.803 37.2302 82.7835 37.2842 82.7688L38.3303 82.4511C66.2738 73.7509 71.0915 53.5695 71.7348 43.8723C71.9116 42.3277 72 40.7637 72 39.1849V38.4566V12.0238L36.0025 0L0 12.0238Z" fill="#EEEEEE"/>
</g>
<g clip-path="url(#clip1_58_328)">
<path d="M53.7646 32.2888C55.2532 33.3739 55.5621 34.9927 55.8608 36.5885C56.4455 39.729 56.4302 42.9079 56.3689 46.0867C56.3383 47.7182 56.3511 49.3498 56.3434 50.9813C56.3383 52.0128 56.0217 52.3243 54.9799 52.3269C54.0863 52.3269 53.1927 52.332 52.3016 52.3269C51.4692 52.3218 51.1271 51.9694 51.1194 51.1243C51.1143 50.5753 51.1194 50.0264 51.1168 49.4749C51.1143 48.7446 50.9688 48.5966 50.2487 48.5966C46.9167 48.594 43.5847 48.5966 40.2527 48.5966C34.5844 48.5966 28.9187 48.5966 23.2504 48.5966C22.418 48.5966 22.3057 48.7115 22.3031 49.5489C22.3006 50.1158 22.3134 50.6826 22.298 51.2494C22.2776 51.9618 21.9125 52.3192 21.1976 52.3243C20.1839 52.3346 19.1703 52.3346 18.1566 52.3243C17.4749 52.3167 17.0843 51.9465 17.0945 51.2698C17.1685 47.2025 16.7804 43.1274 17.2323 39.0677C17.3983 37.5741 17.7149 36.0932 18.0622 34.6276C18.2817 33.7033 18.7413 32.8633 19.7192 32.3016C19.4741 32.2199 19.2954 32.1867 19.1422 32.105C18.5575 31.7909 17.9371 31.5203 17.4162 31.1219C16.8979 30.7236 16.8749 30.1926 17.2375 29.6538C17.6817 28.9925 18.2664 28.561 19.1116 28.5738C19.9005 28.5865 20.692 28.5636 21.481 28.5814C21.7644 28.5891 21.8997 28.4895 22.0197 28.2342C23.5926 24.8869 26.2301 23.0945 29.9349 23.051C34.5001 22.9974 39.0705 22.9821 43.6358 23.0613C47.2103 23.1225 49.7687 24.9022 51.3237 28.1065C51.4998 28.4717 51.676 28.6146 52.082 28.5968C52.8352 28.561 53.5935 28.5917 54.3493 28.5865C55.2455 28.5789 55.8251 29.0793 56.2464 29.7942C56.517 30.2513 56.466 30.7543 56.0268 31.0964C55.534 31.4794 54.957 31.7552 54.408 32.0616C54.2267 32.156 54.0097 32.202 53.7646 32.2888ZM50.0802 31.4743C49.8274 30.8156 49.6079 30.2232 49.3781 29.6359C48.4563 27.2742 46.6384 26.0384 44.1975 25.8392C39.3131 25.4409 34.4159 25.4792 29.5264 25.8009C26.276 26.0154 23.9577 28.1627 23.4138 31.4692C32.2737 31.03 41.1259 31.03 50.0802 31.4743ZM36.6857 40.8525V40.8499C38.2815 40.8499 39.8773 40.8652 41.4706 40.8448C42.5251 40.8321 43.0306 40.4184 43.3243 39.4099C43.4647 38.9324 43.6 38.455 43.7328 37.9775C43.983 37.0787 43.6689 36.586 42.7472 36.5604C39.765 36.4736 36.7828 36.3945 33.8005 36.3638C32.7231 36.3536 31.643 36.4762 30.5655 36.563C29.7715 36.6294 29.4498 37.1119 29.6591 37.8728C29.7894 38.3528 29.9298 38.8277 30.0677 39.3052C30.3996 40.4516 30.8668 40.8321 32.0516 40.8448C33.5963 40.8652 35.141 40.8525 36.6857 40.8525ZM36.7062 46.0382C38.1973 46.0382 39.6909 46.0407 41.1821 46.0382C41.828 46.0356 41.9557 45.9054 41.9583 45.2467C41.9608 44.8867 41.9583 44.5266 41.9583 44.1666C41.9583 43.7402 41.7438 43.5436 41.3199 43.5436C38.2483 43.5462 35.1793 43.5462 32.1077 43.5436C31.6532 43.5436 31.4515 43.7683 31.4515 44.2075C31.4515 44.5675 31.4464 44.9275 31.4515 45.2875C31.4592 45.8824 31.6149 46.0356 32.2252 46.0382C33.7214 46.0407 35.2151 46.0382 36.7062 46.0382ZM45.9158 40.0073C47.4325 39.849 48.8495 39.752 50.2513 39.5478C52.5799 39.2082 52.6973 37.2651 51.8879 35.6515C51.8369 35.5468 51.6122 35.4472 51.4973 35.4727C50.3764 35.7153 49.2581 35.9681 48.1499 36.254C47.504 36.42 46.9014 36.7162 46.6716 37.403C46.4009 38.2124 46.1916 39.0422 45.9158 40.0073ZM27.5118 40.0405C27.2846 39.2388 27.0573 38.5928 26.9271 37.9264C26.7305 36.9281 26.0897 36.4404 25.1654 36.2259C24.2998 36.0242 23.4266 35.8404 22.5636 35.631C21.5397 35.3808 21.4989 35.3987 21.2308 36.4251C21.2001 36.54 21.1669 36.6574 21.1465 36.7749C20.9065 38.1715 21.4248 39.1801 22.7423 39.438C24.2794 39.7367 25.8522 39.8388 27.5118 40.0405Z" fill="#C80000"/>
</g>
<defs>
<clipPath id="clip0_58_328">
<rect width="72" height="83.1549" fill="white"/>
</clipPath>
<clipPath id="clip1_58_328">
<rect width="39.42" height="29.3295" fill="white" transform="translate(17 23)"/>
</clipPath>
</defs>
</svg>
