<svg width="72" height="84" viewBox="0 0 72 84" fill="none" xmlns="http://www.w3.org/2000/svg">
<g clip-path="url(#clip0_34_97)">
<path d="M0 12.0238V38.4566V39.1849C0 40.7637 0.0883978 42.3277 0.265193 43.8723C0.8938 53.3544 5.51995 72.8663 31.8625 81.8597H31.8576C31.8576 81.8597 31.9116 81.8792 32 81.9037C32.6532 82.1236 33.3211 82.3387 33.9988 82.5489C34.9024 82.8372 35.7913 83.1109 36.0025 83.1549L37.1222 82.8177C37.1762 82.803 37.2302 82.7835 37.2842 82.7688L38.3303 82.4511C66.2738 73.7509 71.0915 53.5695 71.7348 43.8723C71.9116 42.3277 72 40.7637 72 39.1849V38.4566V12.0238L36.0025 0L0 12.0238Z" fill="#EEEEEE"/>
</g>
<g clip-path="url(#clip1_34_97)">
<path d="M49.0459 27.0499C46.8429 29.0755 44.6604 31.1231 42.4779 33.1692C38.6033 36.8009 34.7331 40.437 30.8615 44.0717C30.7082 44.2154 30.5462 44.3503 30.3695 44.5058C30.1111 44.2257 29.8892 43.9851 29.6658 43.746C27.3169 41.2203 24.9708 38.6901 22.6146 36.1688C21.5401 35.0188 20.2262 34.5817 18.7006 35.0247C15.9545 35.8211 15.0976 39.1786 17.0889 41.3274C20.4875 44.9972 23.8993 48.6538 27.3067 52.3163C28.2001 53.2756 29.0921 54.2363 30.0118 55.2249C30.1812 55.0768 30.279 54.9946 30.3724 54.9081C34.5711 50.983 38.7712 47.058 42.9669 43.1285C46.6692 39.6597 50.3598 36.179 54.0665 32.716C55.1745 31.6805 55.6461 30.4264 55.3176 28.9552C54.6694 26.0628 51.2445 25.0302 49.0459 27.0499Z" fill="#C80000"/>
</g>
<defs>
<clipPath id="clip0_34_97">
<rect width="72" height="83.1549" fill="white"/>
</clipPath>
<clipPath id="clip1_34_97">
<rect width="39.42" height="29.2252" fill="white" transform="translate(16 26)"/>
</clipPath>
</defs>
</svg>
