<svg width="31" height="35" viewBox="0 0 31 35" fill="none" xmlns="http://www.w3.org/2000/svg">
<path d="M0.665527 15.4733C0.665527 15.4733 -1.11019 29.6438 15.2924 34.5101C15.2924 34.5101 25.3636 31.8212 28.7443 23.6472L5.26826 0.118958H0.859884L24.7894 24.3373C24.7894 24.3373 23.5172 26.1547 22.3187 27.1482L4.49672 9.14656H0L19.7125 29.0579C19.7125 29.0579 17.6688 30.4202 15.4632 31.0508C15.4632 31.0508 5.07979 28.3737 4.03733 18.5281L0.665527 15.4733Z" fill="#1D3782"/>
<path d="M17.0563 7.66828C17.0563 7.66828 27.4486 8.61714 30.9971 5.56531V9.58683C30.9971 9.58683 27.9286 12.0824 21.2615 11.9129L17.0563 7.66828Z" fill="#C80000"/>
<path d="M22.5602 13.2276L26.1794 16.8714C26.1794 16.8714 29.5865 16.3687 31 14.8903V10.8599C31 10.8599 29.024 13.2276 22.5602 13.2276Z" fill="#C80000"/>
<path d="M27.1511 17.85C27.1511 17.85 29.8191 17.4722 31 16.2557V20.3783L30.2019 20.9048L27.1511 17.85Z" fill="#C80000"/>
<path d="M30.7615 3.266C30.7615 5.0745 25.8642 6.53497 19.8244 6.53497C18.3992 6.53497 17.0357 6.45169 15.7871 6.30296C13.7729 4.26841 12.0207 2.48371 10.9311 1.3653C12.8217 0.574078 15.8519 0.047592 19.3062 0C19.2708 0.107082 19.2414 0.217138 19.2178 0.336118C19.1501 0.687109 19.1589 0.922095 19.2325 1.23144C19.0617 1.22252 18.9763 1.21954 18.8026 1.21062C18.726 1.49022 18.6848 1.62705 18.6023 1.90665C18.9498 1.93045 19.1177 1.93937 19.4505 1.95425C19.4858 2.14461 19.4828 2.29929 19.4534 2.43909C19.3651 2.87634 19.0117 3.21246 18.1017 3.19759C17.9839 3.59022 17.928 3.78654 17.8367 4.18215C20.0482 4.6194 22.3511 4.52124 24.5185 3.90254C24.4213 3.50099 24.3594 3.29872 24.2358 2.90014C22.6956 3.17677 21.98 3.2422 20.5017 3.22733C21.0642 3.02804 21.3381 2.65623 21.3351 2.29036C21.3322 2.17436 21.3233 2.0881 21.3027 1.98102C21.9388 1.96912 22.2539 1.95722 22.9165 1.91558C22.8664 1.64787 22.8429 1.51402 22.7958 1.24929C22.0684 1.27309 21.7268 1.27606 21.0259 1.27309C20.8286 0.812038 20.7933 0.588951 20.8021 0.288526C20.8051 0.184419 20.8286 0.0862605 20.8699 0.005949C21.1791 0.0148725 21.4853 0.0267705 21.7857 0.0446175C22.3216 0.0743625 22.8429 0.113031 23.3494 0.166572C27.6606 0.609772 30.7615 1.82932 30.7615 3.266Z" fill="#C80000"/>
</svg>
