<svg width="55" height="41" viewBox="0 0 55 41" fill="none" xmlns="http://www.w3.org/2000/svg">
<g clip-path="url(#clip0_25_523)">
<path d="M51.2951 12.9849C53.372 14.5019 53.803 16.7648 54.2198 18.9956C55.0356 23.3857 55.0142 27.8295 54.9287 32.2732C54.886 34.5539 54.9038 36.8347 54.8931 39.1154C54.886 40.5574 54.4442 40.9929 52.9908 40.9964C51.7439 40.9964 50.4971 41.0036 49.2538 40.9964C48.0925 40.9893 47.6151 40.4967 47.6044 39.3153C47.5973 38.5479 47.6044 37.7805 47.6009 37.0096C47.5973 35.9888 47.3942 35.7818 46.3896 35.7818C41.7407 35.7782 37.0918 35.7818 32.4428 35.7818C24.5343 35.7818 16.6293 35.7818 8.72075 35.7818C7.55941 35.7818 7.40266 35.9424 7.3991 37.1131C7.39554 37.9055 7.41335 38.6978 7.39198 39.4902C7.36348 40.486 6.85405 40.9857 5.85658 40.9929C4.4423 41.0071 3.02803 41.0071 1.61375 40.9929C0.66259 40.9822 0.117542 40.4646 0.131792 39.5188C0.235101 33.8329 -0.306384 28.1364 0.324162 22.4613C0.555718 20.3733 0.997456 18.3031 1.48194 16.2544C1.78831 14.9623 2.42954 13.788 3.79395 13.0028C3.45195 12.8886 3.20259 12.8422 2.98884 12.728C2.17305 12.2889 1.30739 11.9106 0.580655 11.3538C-0.142514 10.797 -0.174575 10.0546 0.331286 9.30147C0.951145 8.37704 1.76694 7.77383 2.94609 7.79168C4.04688 7.80952 5.15122 7.7774 6.25201 7.80239C6.64743 7.81309 6.83624 7.67389 7.00367 7.31697C9.19812 2.63768 12.8781 0.132063 18.0471 0.0713854C24.4167 -0.00356893 30.7934 -0.0249844 37.163 0.0856624C42.1504 0.171324 45.7199 2.65909 47.8894 7.1385C48.1352 7.64891 48.381 7.84879 48.9475 7.8238C49.9984 7.77383 51.0564 7.81666 52.1109 7.80952C53.3613 7.79882 54.1699 8.49839 54.7577 9.49778C55.1354 10.1367 55.0641 10.8398 54.4514 11.3181C53.7638 11.8535 52.9587 12.239 52.1928 12.6673C51.9399 12.7993 51.6371 12.8636 51.2951 12.9849ZM46.1545 11.8463C45.8018 10.9255 45.4955 10.0974 45.1749 9.27649C43.8888 5.97493 41.3524 4.24741 37.9467 3.96901C31.1319 3.41221 24.2992 3.46574 17.4772 3.91547C12.9422 4.21529 9.70754 7.21703 8.94875 11.8392C21.3103 11.2253 33.6612 11.2253 46.1545 11.8463ZM27.4661 24.9562V24.9526C29.6926 24.9526 31.9191 24.9741 34.1421 24.9455C35.6134 24.9277 36.3187 24.3494 36.7284 22.9396C36.9243 22.2721 37.1131 21.6047 37.2984 20.9372C37.6475 19.6809 37.2093 18.992 35.9233 18.9563C31.7624 18.8349 27.6015 18.7243 23.4406 18.6815C21.9373 18.6672 20.4304 18.8385 18.9271 18.9599C17.8191 19.0527 17.3703 19.7273 17.6624 20.7909C17.8441 21.4619 18.04 22.1258 18.2324 22.7932C18.6955 24.3958 19.3474 24.9277 21.0004 24.9455C23.1556 24.9741 25.3109 24.9562 27.4661 24.9562ZM27.4946 32.2054C29.5751 32.2054 31.6591 32.2089 33.7395 32.2054C34.6408 32.2018 34.8189 32.0198 34.8225 31.0989C34.8261 30.5956 34.8225 30.0924 34.8225 29.5891C34.8225 28.993 34.5233 28.7182 33.9319 28.7182C29.6463 28.7218 25.3643 28.7218 21.0787 28.7182C20.4446 28.7182 20.1632 29.0323 20.1632 29.6462C20.1632 30.1495 20.1561 30.6527 20.1632 31.156C20.1739 31.9876 20.3912 32.2018 21.2426 32.2054C23.3302 32.2089 25.4142 32.2054 27.4946 32.2054ZM40.3442 23.7748C42.4603 23.5535 44.4374 23.4179 46.3932 23.1323C49.6421 22.6576 49.806 19.9414 48.6767 17.6856C48.6055 17.5393 48.292 17.4001 48.1317 17.4358C46.5678 17.7749 45.0074 18.1282 43.4613 18.528C42.5601 18.76 41.7193 19.174 41.3987 20.1342C41.0211 21.2656 40.729 22.4256 40.3442 23.7748ZM14.6664 23.8212C14.3494 22.7004 14.0323 21.7974 13.8506 20.8658C13.5763 19.4703 12.6822 18.7885 11.3926 18.4887C10.1849 18.2068 8.96656 17.9498 7.76247 17.6571C6.33394 17.3073 6.27694 17.3323 5.90289 18.7671C5.86014 18.9277 5.81383 19.0919 5.78533 19.2561C5.45046 21.2085 6.17363 22.6184 8.01184 22.9788C10.1564 23.3964 12.3508 23.5392 14.6664 23.8212Z" fill="white"/>
</g>
<defs>
<clipPath id="clip0_25_523">
<rect width="55" height="41" fill="white"/>
</clipPath>
</defs>
</svg>
