<svg width="72" height="84" viewBox="0 0 72 84" fill="none" xmlns="http://www.w3.org/2000/svg">
<path d="M0 12.0238V38.4566V39.1849C0 40.7637 0.0883978 42.3277 0.265193 43.8723C0.8938 53.3544 5.51995 72.8663 31.8625 81.8597H31.8576C31.8576 81.8597 31.9116 81.8792 32 81.9037C32.6532 82.1236 33.3211 82.3387 33.9988 82.5489C34.9024 82.8372 35.7913 83.1109 36.0025 83.1549L37.1222 82.8177C37.1762 82.803 37.2302 82.7835 37.2842 82.7688L38.3303 82.4511C66.2738 73.7509 71.0915 53.5695 71.7348 43.8723C71.9116 42.3277 72 40.7637 72 39.1849V38.4566V12.0238L36.0025 0L0 12.0238Z" fill="#1D3782"/>
<path d="M35.6987 22C37.4354 22.0207 38.9662 22.5875 40.211 23.8014C41.5839 25.1393 43.1879 25.8186 45.1123 25.8645C48.707 25.9517 51.462 28.7101 51.5535 32.3176C51.6016 34.2475 52.2812 35.8493 53.6083 37.2331C56.0132 39.7414 56.0269 43.7252 53.6312 46.2403C52.288 47.6494 51.6039 49.2695 51.5489 51.2293C51.4483 54.8047 48.7139 57.5355 45.1489 57.6342C43.2108 57.687 41.6045 58.3685 40.2087 59.7041C37.6711 62.1298 33.7263 62.1183 31.1955 59.6858C29.8249 58.3685 28.2392 57.6847 26.3286 57.6388C22.6949 57.5516 19.94 54.7702 19.8622 51.1215C19.821 49.2374 19.1483 47.6631 17.8531 46.3115C15.3819 43.7298 15.3819 39.7735 17.8554 37.1826C19.1483 35.8287 19.821 34.2544 19.8622 32.3704C19.9423 28.7262 22.7041 25.9425 26.3332 25.8599C28.2438 25.8163 29.8364 25.137 31.1978 23.8083C32.4449 22.599 33.9688 22.0252 35.6987 22ZM32.4174 45.2283C32.2229 44.9942 32.136 44.8726 32.033 44.7694C30.9393 43.6678 29.8387 42.5709 28.7449 41.4648C28.4085 41.1252 28.0218 40.9003 27.5436 40.8635C26.8137 40.8085 26.1432 41.2032 25.832 41.8595C25.5071 42.5457 25.633 43.3052 26.1959 43.8744C27.7656 45.4578 29.3421 47.0321 30.9164 48.6109C31.9049 49.6023 32.8385 49.6023 33.827 48.6132C37.5567 44.8726 41.2864 41.132 45.0162 37.3915C45.1397 37.2675 45.2656 37.1436 45.3754 37.0059C45.9635 36.2647 45.8674 35.2228 45.158 34.5963C44.435 33.9584 43.4144 34.0341 42.6571 34.7937C39.3461 38.112 36.035 41.4304 32.7286 44.7533C32.6165 44.8703 32.5479 45.0264 32.4174 45.2283Z" fill="white"/>
</svg>
