<svg width="72" height="84" viewBox="0 0 72 84" fill="none" xmlns="http://www.w3.org/2000/svg">
<g clip-path="url(#clip0_29_574)">
<path d="M0 12.0238V38.4566V39.1849C0 40.7637 0.0883978 42.3277 0.265193 43.8723C0.8938 53.3544 5.51995 72.8663 31.8625 81.8597H31.8576C31.8576 81.8597 31.9116 81.8792 32 81.9037C32.6532 82.1236 33.3211 82.3387 33.9988 82.5489C34.9024 82.8372 35.7913 83.1109 36.0025 83.1549L37.1222 82.8177C37.1762 82.803 37.2302 82.7835 37.2842 82.7688L38.3303 82.4511C66.2738 73.7509 71.0915 53.5695 71.7348 43.8723C71.9116 42.3277 72 40.7637 72 39.1849V38.4566V12.0238L36.0025 0L0 12.0238Z" fill="#1D3782"/>
<path d="M55.4176 45.3531C55.2247 45.6361 55.0583 45.9432 54.8316 46.1972C51.7833 49.6389 48.7278 53.0709 45.6747 56.5077C44.6233 57.6904 43.2872 58.3217 41.7366 58.3362C37.0581 58.3773 32.3772 58.358 27.6987 58.3483C27.349 58.3483 27.103 58.4402 26.8594 58.6941C26.0588 59.5286 25.2316 60.3388 24.4454 61.1273C21.6238 58.2975 18.8216 55.4846 16 52.6525C16.041 52.6089 16.123 52.5146 16.2122 52.4251C18.6118 50.0549 21.0089 47.6822 23.4108 45.3144C26.0033 42.7603 29.5508 42.0904 32.8619 43.5996C34.0026 44.1196 35.177 44.2333 36.3901 44.2405C37.5597 44.2478 38.7293 44.2236 39.8965 44.2744C41.1337 44.3276 42.2647 45.1717 42.5975 46.1996C43.0244 47.5226 42.3684 48.9109 41.0445 49.5155C40.4464 49.7888 39.8194 49.8831 39.1706 49.8856C37.9118 49.8856 36.6505 49.8856 35.3917 49.8856C35.288 49.8856 35.1867 49.8831 35.083 49.888C34.5934 49.9122 34.2727 50.1976 34.2847 50.5966C34.2944 50.9788 34.6537 51.3053 35.1023 51.3101C36.1296 51.3174 37.1594 51.3125 38.1867 51.3125C39.4214 51.3125 40.6562 51.3222 41.8885 51.3029C42.0959 51.3005 42.3419 51.2158 42.5035 51.0852C44.9898 49.0439 47.4617 46.9857 49.9457 44.9419C50.6233 44.3832 51.354 43.9043 52.2246 43.6891C53.0639 43.4811 53.8717 43.5222 54.6555 43.9406C55.0317 44.1414 55.2681 44.434 55.42 44.8162C55.4176 44.9927 55.4176 45.1741 55.4176 45.3531Z" fill="white"/>
<path d="M39.0501 39.991C38.9898 39.9039 38.9488 39.8169 38.8861 39.754C36.325 37.183 33.759 34.6193 31.2027 32.0435C29.4037 30.2319 29.0395 27.6368 30.2791 25.5616C31.8659 22.9035 35.3483 22.1997 37.8949 24.0354C38.329 24.3474 38.7148 24.7272 39.0862 25.044C39.6626 24.6038 40.1932 24.1056 40.8081 23.7476C44.0131 21.8732 47.9464 23.6896 48.5903 27.3441C48.8966 29.0782 48.4119 30.6286 47.1771 31.8838C44.5437 34.5637 41.8789 37.212 39.2237 39.8725C39.1948 39.8991 39.161 39.916 39.0501 39.991Z" fill="white"/>
</g>
<defs>
<clipPath id="clip0_29_574">
<rect width="72" height="83.1549" fill="white"/>
</clipPath>
</defs>
</svg>
