<svg width="72" height="84" viewBox="0 0 72 84" fill="none" xmlns="http://www.w3.org/2000/svg">
<path d="M0 12.0238V38.4566V39.1849C0 40.7637 0.0883978 42.3277 0.265193 43.8723C0.8938 53.3544 5.51995 72.8663 31.8625 81.8597H31.8576C31.8576 81.8597 31.9116 81.8792 32 81.9037C32.6532 82.1236 33.3211 82.3387 33.9988 82.5489C34.9024 82.8372 35.7913 83.1109 36.0025 83.1549L37.1222 82.8177C37.1762 82.803 37.2302 82.7835 37.2842 82.7688L38.3303 82.4511C66.2738 73.7509 71.0915 53.5695 71.7348 43.8723C71.9116 42.3277 72 40.7637 72 39.1849V38.4566V12.0238L36.0025 0L0 12.0238Z" fill="#1D3782"/>
<path d="M32.9079 64.025C32.7615 62.7299 32.6151 61.4371 32.4711 60.1419C32.4135 59.6171 32.3678 59.0923 32.291 58.5699C32.2742 58.4616 32.1566 58.322 32.0534 58.281C30.7692 57.7755 29.4778 57.2868 28.0903 56.7572C27.4758 57.2555 26.7365 57.8525 25.9996 58.4495C25.2723 59.0369 24.5474 59.6268 23.856 60.1853C22.5238 58.8444 21.206 57.5203 19.8474 56.1529C19.9074 56.0759 20.0178 55.929 20.133 55.7846C21.134 54.5424 22.1302 53.2954 23.1431 52.0652C23.3208 51.8485 23.3064 51.7065 23.1983 51.4561C22.7039 50.3367 22.2382 49.2028 21.7917 48.0617C21.6933 47.8114 21.6069 47.6886 21.3212 47.6621C19.6505 47.5008 17.9799 47.3203 16.3116 47.1301C16.2012 47.118 16.0188 46.9664 16.0164 46.8749C15.9947 46.0275 16.002 45.1801 16.002 44.2942C20.3635 44.2942 24.6914 44.2942 29.0601 44.2942C29.1417 46.3958 29.9459 48.1532 31.5949 49.4797C32.7999 50.4474 34.1897 50.9265 35.7332 50.9169C37.5551 50.9048 39.1298 50.2476 40.4164 48.9525C41.6886 47.6717 42.3103 46.0949 42.3559 44.2773C46.7222 44.2773 51.0405 44.2773 55.4189 44.2773C55.4189 45.1705 55.4261 46.0444 55.4045 46.9182C55.4021 46.9929 55.2196 47.118 55.1116 47.1301C53.4577 47.3179 51.8039 47.5008 50.1452 47.6549C49.8211 47.6862 49.7275 47.8186 49.6195 48.1027C49.1826 49.2317 48.7169 50.3487 48.2273 51.4561C48.1168 51.7065 48.1049 51.8485 48.2825 52.0652C49.2859 53.2857 50.2724 54.5207 51.2638 55.7509C51.3814 55.8977 51.499 56.047 51.595 56.1698C50.2508 57.5059 48.9258 58.8227 47.5624 60.178C46.1581 59.0394 44.6843 57.8477 43.3353 56.7548C41.9502 57.2844 40.6564 57.7731 39.3746 58.2834C39.2594 58.3292 39.1442 58.5218 39.1274 58.6566C38.9401 60.3008 38.7721 61.9475 38.5945 63.5917C38.5801 63.7361 38.5441 63.8782 38.5177 64.0226C36.6502 64.025 34.7803 64.025 32.9079 64.025Z" fill="white"/>
<path d="M45.6228 41.5956C38.9929 41.5956 32.411 41.5956 25.8148 41.5956C25.8004 41.5209 25.7836 41.4656 25.7836 41.4102C25.7836 39.2869 25.75 37.1612 25.7956 35.0379C25.8484 32.5703 27.8095 30.6372 30.2771 30.6179C33.8993 30.5891 37.5215 30.5915 41.1437 30.6179C43.6329 30.6348 45.5892 32.5727 45.6396 35.0692C45.6828 37.1636 45.6516 39.258 45.6516 41.3524C45.6468 41.4246 45.6348 41.4969 45.6228 41.5956Z" fill="white"/>
<path d="M35.7236 29.2025C32.9127 29.2073 30.6228 26.9082 30.63 24.0892C30.6348 21.2918 32.9175 19.0048 35.7068 19C38.5129 18.9952 40.8076 21.299 40.8004 24.1157C40.7932 26.9155 38.5153 29.1976 35.7236 29.2025Z" fill="white"/>
<path d="M23.1479 41.5909C20.7403 41.5909 18.3951 41.5909 16.0259 41.5909C16.0163 41.4344 16.0043 41.3068 16.0043 41.1768C16.0019 39.4772 15.9947 37.7776 16.0067 36.078C16.0187 34.3374 16.7197 32.9845 18.3111 32.1973C18.7432 31.983 19.2521 31.8338 19.7298 31.8169C21.1244 31.7664 22.5238 31.8001 23.9377 31.8001C23.772 32.2478 23.5464 32.686 23.4528 33.1482C23.3039 33.8897 23.1791 34.648 23.1623 35.4015C23.1215 37.2913 23.1479 39.1811 23.1479 41.0733C23.1479 41.2297 23.1479 41.3886 23.1479 41.5909Z" fill="white"/>
<path d="M55.366 41.5908C53.0184 41.5908 50.6733 41.5908 48.2801 41.5908C48.2801 41.391 48.2801 41.2177 48.2801 41.0467C48.2753 39.0101 48.2753 36.9735 48.2657 34.9368C48.2609 33.9402 48.016 32.9965 47.5912 32.0985C47.5479 32.0095 47.5143 31.9156 47.4591 31.776C47.6224 31.7687 47.7472 31.7567 47.8696 31.7591C49.2114 31.7808 50.5604 31.7447 51.8975 31.8385C53.6762 31.9637 55.282 33.5767 55.3468 35.3605C55.4236 37.4212 55.366 39.4844 55.366 41.5908Z" fill="white"/>
<path d="M24.8954 21.364C28.1599 21.352 30.4163 24.7705 29.1033 27.7315C28.9881 27.9915 28.8417 28.1456 28.5488 28.213C27.1902 28.5332 26.0548 29.2458 25.0778 30.2376C24.941 30.3773 24.6746 30.4784 24.4801 30.4591C22.5406 30.2641 20.9756 28.8991 20.4955 27.0238C20.0322 25.2158 20.7667 23.2851 22.3414 22.1609C23.0567 21.6577 23.9808 21.3689 24.8954 21.364Z" fill="white"/>
<path d="M46.5014 21.364C48.885 21.3616 50.9613 23.3116 51.0573 25.6443C51.1606 28.1624 49.3554 30.2617 46.8902 30.4687C46.7198 30.4831 46.4894 30.3869 46.3694 30.2617C45.378 29.2361 44.2066 28.5404 42.8264 28.1769C42.6487 28.1311 42.4495 27.9578 42.3679 27.7917C40.9685 24.8692 43.2248 21.3688 46.5014 21.364Z" fill="white"/>
</svg>
